<svg width="38" height="50" viewBox="0 0 38 50" fill="none" xmlns="http://www.w3.org/2000/svg">
<mask id="path-1-outside-1_1_286" maskUnits="userSpaceOnUse" x="0" y="0" width="38" height="50" fill="black">
<rect fill="white" width="38" height="50"/>
<path fill-rule="evenodd" clip-rule="evenodd" d="M18.875 47C18.875 47 35.75 28.1948 35.75 18.875C35.75 9.55519 28.1948 2 18.875 2C9.55519 2 2 9.55519 2 18.875C2 28.1948 18.875 47 18.875 47ZM18.875 26.1875C22.9136 26.1875 26.1875 22.9136 26.1875 18.875C26.1875 14.8364 22.9136 11.5625 18.875 11.5625C14.8364 11.5625 11.5625 14.8364 11.5625 18.875C11.5625 22.9136 14.8364 26.1875 18.875 26.1875Z"/>
</mask>
<path fill-rule="evenodd" clip-rule="evenodd" d="M18.875 47C18.875 47 35.75 28.1948 35.75 18.875C35.75 9.55519 28.1948 2 18.875 2C9.55519 2 2 9.55519 2 18.875C2 28.1948 18.875 47 18.875 47ZM18.875 26.1875C22.9136 26.1875 26.1875 22.9136 26.1875 18.875C26.1875 14.8364 22.9136 11.5625 18.875 11.5625C14.8364 11.5625 11.5625 14.8364 11.5625 18.875C11.5625 22.9136 14.8364 26.1875 18.875 26.1875Z" fill="#FFB800"/>
<path d="M18.875 47L17.3865 48.3358L18.875 49.9946L20.3635 48.3358L18.875 47ZM33.75 18.875C33.75 20.7046 32.8873 23.2703 31.335 26.286C29.816 29.2371 27.7689 32.3722 25.6888 35.2647C23.6139 38.1499 21.5346 40.7544 19.9719 42.6397C19.1914 43.5814 18.5418 44.3411 18.0887 44.8639C17.8622 45.1252 17.685 45.3272 17.5652 45.4629C17.5053 45.5308 17.4597 45.5821 17.4296 45.6159C17.4145 45.6328 17.4033 45.6454 17.3961 45.6535C17.3925 45.6575 17.3898 45.6605 17.3882 45.6623C17.3874 45.6632 17.3869 45.6638 17.3866 45.6641C17.3864 45.6643 17.3864 45.6643 17.3863 45.6644C17.3864 45.6644 17.3865 45.6642 18.875 47C20.3635 48.3358 20.3638 48.3355 20.3641 48.3352C20.3642 48.335 20.3646 48.3346 20.365 48.3342C20.3657 48.3334 20.3667 48.3323 20.3679 48.3309C20.3704 48.3281 20.3739 48.3242 20.3784 48.3192C20.3874 48.3091 20.4004 48.2946 20.4172 48.2756C20.451 48.2377 20.5002 48.1823 20.5639 48.1101C20.6913 47.9658 20.8765 47.7547 21.1115 47.4836C21.5812 46.9416 22.25 46.1594 23.0515 45.1924C24.6529 43.2605 26.7924 40.5812 28.9362 37.6001C31.0748 34.6263 33.2465 31.3127 34.8915 28.1166C36.5034 24.9852 37.75 21.7053 37.75 18.875H33.75ZM18.875 4C27.0902 4 33.75 10.6598 33.75 18.875H37.75C37.75 8.45063 29.2994 0 18.875 0V4ZM4 18.875C4 10.6598 10.6598 4 18.875 4V0C8.45063 0 0 8.45063 0 18.875H4ZM18.875 47C20.3635 45.6642 20.3636 45.6644 20.3637 45.6644C20.3636 45.6643 20.3636 45.6643 20.3634 45.6641C20.3631 45.6638 20.3626 45.6632 20.3618 45.6623C20.3602 45.6605 20.3575 45.6575 20.3539 45.6535C20.3467 45.6454 20.3355 45.6328 20.3204 45.6159C20.2903 45.5821 20.2447 45.5308 20.1848 45.4629C20.065 45.3272 19.8878 45.1252 19.6613 44.8639C19.2082 44.3411 18.5586 43.5814 17.7781 42.6397C16.2154 40.7544 14.1361 38.1499 12.0612 35.2647C9.98109 32.3722 7.93395 29.2371 6.41498 26.286C4.86273 23.2703 4 20.7046 4 18.875H0C0 21.7053 1.24664 24.9852 2.85846 28.1166C4.50355 31.3127 6.67516 34.6263 8.81378 37.6001C10.9576 40.5812 13.0971 43.2605 14.6985 45.1924C15.5 46.1594 16.1688 46.9416 16.6385 47.4836C16.8735 47.7547 17.0587 47.9658 17.1861 48.1101C17.2498 48.1823 17.299 48.2377 17.3328 48.2756C17.3496 48.2946 17.3626 48.3091 17.3716 48.3192C17.3761 48.3242 17.3796 48.3281 17.3821 48.3309C17.3833 48.3323 17.3843 48.3334 17.385 48.3342C17.3854 48.3346 17.3858 48.335 17.3859 48.3352C17.3862 48.3355 17.3865 48.3358 18.875 47ZM24.1875 18.875C24.1875 21.809 21.809 24.1875 18.875 24.1875V28.1875C24.0182 28.1875 28.1875 24.0182 28.1875 18.875H24.1875ZM18.875 13.5625C21.809 13.5625 24.1875 15.941 24.1875 18.875H28.1875C28.1875 13.7318 24.0182 9.5625 18.875 9.5625V13.5625ZM13.5625 18.875C13.5625 15.941 15.941 13.5625 18.875 13.5625V9.5625C13.7318 9.5625 9.5625 13.7318 9.5625 18.875H13.5625ZM18.875 24.1875C15.941 24.1875 13.5625 21.809 13.5625 18.875H9.5625C9.5625 24.0182 13.7318 28.1875 18.875 28.1875V24.1875Z" fill="#191C26" mask="url(#path-1-outside-1_1_286)"/>
</svg>
