<svg width="27" height="27" viewBox="0 0 27 27" fill="none" xmlns="http://www.w3.org/2000/svg">
<rect width="27" height="27" rx="13.5" fill="#2F89CE"/>
<path d="M6.13566 13.4079L9.63 14.7108L10.9922 19.0936C11.0514 19.3897 11.4068 19.4489 11.6437 19.2712L13.5981 17.6721C13.7758 17.4945 14.0719 17.4945 14.3088 17.6721L17.8032 20.2188C18.0401 20.3965 18.3954 20.2781 18.4547 19.9819L21.0606 7.54449C21.1198 7.24836 20.8237 6.95224 20.5276 7.07069L6.13566 12.6379C5.7803 12.7564 5.7803 13.2894 6.13566 13.4079ZM10.8145 14.0593L17.6847 9.85431C17.8032 9.79508 17.9216 9.97276 17.8032 10.032L12.1767 15.3031C11.999 15.4808 11.8214 15.7177 11.8214 16.0138L11.6437 17.4352C11.6437 17.6129 11.3475 17.6721 11.2883 17.4352L10.5776 14.8293C10.3999 14.5332 10.5184 14.1778 10.8145 14.0593Z" fill="white"/>
</svg>
