<svg width="27" height="27" viewBox="0 0 27 27" fill="none" xmlns="http://www.w3.org/2000/svg">
<rect width="27" height="27" rx="13.5" fill="#7C509A"/>
<path d="M17.5244 6.38707C14.8219 5.87098 12.0156 5.87098 9.3131 6.38707C8.11779 6.64511 6.61065 8.09015 6.3508 9.22554C5.88307 11.4447 5.88307 13.7155 6.3508 15.9347C6.66262 17.0701 8.16976 18.5151 9.3131 18.7731C9.36507 18.7731 9.41704 18.8248 9.41704 18.8764V22.1277C9.41704 22.2825 9.62492 22.3858 9.72887 22.2309L11.288 20.6311C11.288 20.6311 12.5353 19.3408 12.7431 19.1344C12.7431 19.1344 12.7951 19.0828 12.8471 19.0828C14.4062 19.1344 16.0173 18.9796 17.5764 18.7215C18.7717 18.4635 20.2788 17.0185 20.5387 15.8831C21.0064 13.6639 21.0064 11.3931 20.5387 9.17393C20.2269 8.09015 18.7197 6.64511 17.5244 6.38707ZM17.5764 16.0895C17.3165 16.6056 17.0047 17.0185 16.485 17.2765C16.3291 17.3281 16.1732 17.3797 16.0173 17.4313C15.8094 17.3797 15.6535 17.3281 15.4976 17.2765C13.8345 16.6056 12.2754 15.6766 11.0281 14.3348C10.3525 13.5607 9.78083 12.6833 9.3131 11.7544C9.10522 11.2899 8.89734 10.877 8.74143 10.4125C8.58552 9.99967 8.84537 9.5868 9.10522 9.27715C9.36507 8.9675 9.67689 8.76106 10.0407 8.60624C10.3005 8.45141 10.5604 8.55463 10.7683 8.76107C11.184 9.27715 11.5998 9.79324 11.9116 10.3609C12.1195 10.7222 12.0675 11.1351 11.7037 11.3931C11.5998 11.4447 11.5478 11.4963 11.4439 11.5995C11.3919 11.6512 11.288 11.7028 11.236 11.806C11.1321 11.9608 11.1321 12.1156 11.184 12.2705C11.5998 13.4575 12.3793 14.3864 13.5747 14.9025C13.7825 15.0057 13.9385 15.0573 14.1983 15.0573C14.5621 15.0057 14.718 14.5928 14.9779 14.3864C15.2377 14.18 15.5495 14.18 15.8614 14.3348C16.1212 14.4896 16.3811 14.6961 16.6929 14.9025C16.9527 15.1089 17.2126 15.2638 17.4724 15.4702C17.6283 15.5734 17.6803 15.8315 17.5764 16.0895ZM15.3936 12.2188C15.2897 12.2188 15.3416 12.2188 15.3936 12.2188C15.1857 12.2188 15.1338 12.1156 15.0818 11.9608C15.0818 11.8576 15.0818 11.7028 15.0298 11.5995C14.9779 11.3931 14.8739 11.1867 14.666 11.0318C14.5621 10.9802 14.4582 10.9286 14.3542 10.877C14.1983 10.8254 14.0944 10.8254 13.9385 10.8254C13.7825 10.7738 13.7306 10.6706 13.7306 10.5158C13.7306 10.4125 13.8865 10.3093 13.9904 10.3093C14.8219 10.3609 15.4456 10.8254 15.5495 11.806C15.5495 11.8576 15.5495 11.9608 15.5495 12.0124C15.5495 12.1156 15.4976 12.2188 15.3936 12.2188ZM14.8739 9.94806C14.6141 9.84485 14.3542 9.74163 14.0424 9.69002C13.9385 9.69002 13.7825 9.63841 13.6786 9.63841C13.5227 9.63841 13.4188 9.53519 13.4707 9.38037C13.4707 9.22554 13.5747 9.12233 13.7306 9.17393C14.2503 9.22554 14.718 9.32876 15.1857 9.5352C16.1212 9.99967 16.6409 10.7738 16.7968 11.806C16.7968 11.8576 16.7968 11.9092 16.7968 11.9608C16.7968 12.064 16.7968 12.1672 16.7968 12.3221C16.7968 12.3737 16.7968 12.4253 16.7968 12.4769C16.7448 12.6833 16.3811 12.7349 16.3291 12.4769C16.3291 12.4253 16.2771 12.3221 16.2771 12.2705C16.2771 11.806 16.1732 11.3415 15.9653 10.9286C15.6535 10.4642 15.2897 10.1545 14.8739 9.94806ZM17.6803 13.0446C17.5244 13.0446 17.4205 12.8898 17.4205 12.7349C17.4205 12.4253 17.3685 12.1156 17.3165 11.806C17.1086 10.1545 15.7574 8.81267 14.1463 8.55463C13.8865 8.50302 13.6266 8.50302 13.4188 8.45141C13.2628 8.45141 13.055 8.45141 13.003 8.24498C12.951 8.09015 13.1069 7.93533 13.2628 7.93533C13.3148 7.93533 13.3668 7.93533 13.3668 7.93533C13.4707 7.93533 15.4976 7.98693 13.3668 7.93533C15.5495 7.98693 17.3685 9.43198 17.7323 11.5995C17.7843 11.9608 17.8362 12.3221 17.8362 12.7349C17.9402 12.8898 17.8362 13.0446 17.6803 13.0446Z" fill="white"/>
</svg>
