<svg width="27" height="27" viewBox="0 0 27 27" fill="none" xmlns="http://www.w3.org/2000/svg">
<rect width="27" height="27" rx="13.5" fill="#7294C7"/>
<path d="M21.5795 17.6569C21.5795 17.5938 21.5164 17.5938 21.5164 17.5307C21.264 17.0259 20.6961 16.395 19.939 15.701C19.5605 15.3855 19.3712 15.1331 19.245 15.0069C19.0557 14.7546 19.0557 14.5653 19.1188 14.3129C19.1819 14.1236 19.4343 13.8081 19.8759 13.2403C20.1283 12.9248 20.2545 12.7356 20.4438 12.5463C21.3902 11.2844 21.8318 10.4642 21.7056 10.0856L21.6426 10.0225C21.5795 9.95944 21.5164 9.89635 21.3902 9.89635C21.264 9.83326 21.0747 9.83326 20.8854 9.89635H18.4879C18.4248 9.89635 18.4248 9.89635 18.2986 9.89635C18.2355 9.89635 18.1724 9.89635 18.1724 9.89635H18.1093H18.0462L17.9831 9.95944C17.92 10.0225 17.92 10.0225 17.92 10.0856C17.6676 10.7797 17.3522 11.3475 17.0367 11.9784C16.8474 12.2939 16.6582 12.6094 16.4689 12.8618C16.2796 13.1141 16.1534 13.3034 16.0272 13.4296C15.901 13.5558 15.7748 13.6189 15.7117 13.7451C15.6486 13.8082 15.5225 13.8712 15.5225 13.8082C15.4594 13.8082 15.3963 13.8082 15.3963 13.7451C15.3332 13.682 15.2701 13.6189 15.207 13.5558C15.1439 13.4927 15.1439 13.3665 15.0808 13.2403C15.0808 13.1141 15.0808 12.9879 15.0808 12.9248C15.0808 12.8617 15.0808 12.6725 15.0808 12.5463C15.0808 12.357 15.0808 12.2308 15.0808 12.1677C15.0808 11.9784 15.0808 11.7261 15.0808 11.4737C15.0808 11.2213 15.0808 11.032 15.0808 10.9058C15.0808 10.7797 15.0808 10.5904 15.0808 10.4642C15.0808 10.2749 15.0808 10.1487 15.0808 10.0856C15.0808 10.0225 15.0177 9.89635 15.0177 9.83325C14.9546 9.77016 14.8915 9.70707 14.8284 9.64397C14.7653 9.58088 14.6392 9.58088 14.5761 9.51779C14.2606 9.45469 13.882 9.3916 13.4404 9.3916C12.4309 9.3916 11.7369 9.4547 11.4845 9.58088C11.3583 9.64398 11.2321 9.70707 11.169 9.83325C11.0428 9.95944 11.0428 10.0225 11.1059 10.0225C11.4214 10.0856 11.6738 10.2118 11.7999 10.4011L11.863 10.5273C11.9261 10.5904 11.9261 10.7166 11.9892 10.9058C12.0523 11.0951 12.0523 11.2844 12.0523 11.5368C12.0523 11.9153 12.0523 12.2939 12.0523 12.5463C12.0523 12.8618 11.9892 13.051 11.9892 13.2403C11.9892 13.4296 11.9261 13.5558 11.863 13.6189C11.8 13.7451 11.7999 13.8082 11.7368 13.8082C11.7368 13.8082 11.7368 13.8712 11.6738 13.8712C11.6107 13.8712 11.5476 13.9343 11.4214 13.9343C11.3583 13.9343 11.2321 13.8712 11.169 13.8082C11.0428 13.7451 10.9166 13.6189 10.8535 13.4927C10.7274 13.3665 10.6012 13.1772 10.475 12.9248C10.3488 12.6725 10.1595 12.4201 10.0333 12.0415L9.90714 11.7892C9.84404 11.663 9.71786 11.4106 9.59167 11.0951C9.46548 10.7797 9.33929 10.5273 9.2131 10.2118C9.15001 10.0856 9.08693 10.0225 9.02383 9.95944H8.96073C8.96073 9.95944 8.89763 9.89635 8.83454 9.89635C8.77145 9.89635 8.70836 9.83325 8.64527 9.83325H6.37389C6.12152 9.83325 5.99533 9.89635 5.93224 9.95944L5.86914 10.0225C5.86914 10.0225 5.86914 10.0856 5.86914 10.1487C5.86914 10.2118 5.86914 10.2749 5.93224 10.4011C6.24771 11.1582 6.62627 11.9153 7.00483 12.6725C7.38339 13.3665 7.76196 13.9974 8.01433 14.4391C8.3298 14.8807 8.58217 15.3224 8.89764 15.701C9.2131 16.0795 9.40238 16.3319 9.46548 16.4581C9.59166 16.5843 9.65475 16.6474 9.71785 16.7105L9.90714 16.8997C10.0333 17.0259 10.2226 17.2152 10.475 17.4045C10.7274 17.5938 11.0428 17.783 11.3583 17.9723C11.6738 18.1616 12.0523 18.2878 12.4309 18.414C12.8725 18.5402 13.2511 18.6033 13.6297 18.5402H14.5761C14.7653 18.5402 14.8915 18.4771 15.0177 18.3509L15.0808 18.2878C15.0808 18.2247 15.1439 18.2247 15.1439 18.1616C15.1439 18.0985 15.1439 18.0354 15.1439 17.9092C15.1439 17.6569 15.1439 17.4676 15.207 17.2783C15.2701 17.089 15.2701 16.9628 15.3332 16.8367C15.3963 16.7105 15.4594 16.6474 15.5225 16.5843C15.5856 16.5212 15.6487 16.4581 15.6487 16.4581H15.7117C15.8379 16.395 16.0272 16.4581 16.1534 16.5843C16.3427 16.7105 16.532 16.8997 16.6581 17.089C16.7843 17.2783 16.9736 17.4676 17.226 17.72C17.4784 17.9723 17.6677 18.1616 17.7938 18.2247L17.9831 18.3509C18.1093 18.414 18.2355 18.4771 18.4248 18.5402C18.6141 18.6033 18.7402 18.6033 18.8664 18.6033L21.0116 18.5402C21.2009 18.5402 21.3902 18.4771 21.5164 18.414C21.6425 18.3509 21.7056 18.2878 21.7056 18.1616C21.7056 18.0985 21.7056 17.9723 21.7056 17.9092C21.5794 17.7831 21.5795 17.72 21.5795 17.6569Z" fill="white"/>
</svg>
