<svg width="27" height="27" viewBox="0 0 27 27" fill="none" xmlns="http://www.w3.org/2000/svg">
<rect width="27" height="27" rx="13.5" fill="#48C95F"/>
<path d="M18.6053 8.98257C17.3263 7.70806 15.6211 7 13.8211 7C10.0789 7 7.04737 10.0211 7.04737 13.7502C7.04737 14.9303 7.37895 16.1104 7.94737 17.1016L7 20.5947L10.6 19.6507C11.5947 20.1699 12.6842 20.4531 13.8211 20.4531C17.5632 20.4531 20.5947 17.4321 20.5947 13.703C20.5474 11.9564 19.8842 10.2571 18.6053 8.98257ZM17.0895 16.1576C16.9474 16.5352 16.2842 16.9128 15.9526 16.96C15.6684 17.0072 15.2895 17.0072 14.9105 16.9128C14.6737 16.8184 14.3421 16.724 13.9632 16.5352C12.2579 15.8271 11.1684 14.1278 11.0737 13.9862C10.9789 13.8918 10.3632 13.0893 10.3632 12.2396C10.3632 11.39 10.7895 11.0123 10.9316 10.8235C11.0737 10.6347 11.2632 10.6347 11.4053 10.6347C11.5 10.6347 11.6421 10.6347 11.7368 10.6347C11.8316 10.6347 11.9737 10.5875 12.1158 10.9179C12.2579 11.2484 12.5895 12.098 12.6368 12.1452C12.6842 12.2396 12.6842 12.334 12.6368 12.4285C12.5895 12.5229 12.5421 12.6173 12.4474 12.7117C12.3526 12.8061 12.2579 12.9477 12.2105 12.9949C12.1158 13.0893 12.0211 13.1837 12.1158 13.3253C12.2105 13.5141 12.5421 14.0334 13.0632 14.5054C13.7263 15.0719 14.2474 15.2607 14.4368 15.3551C14.6263 15.4495 14.7211 15.4023 14.8158 15.3079C14.9105 15.2135 15.2421 14.8359 15.3368 14.647C15.4316 14.4582 15.5737 14.5054 15.7158 14.5526C15.8579 14.5998 16.7105 15.0247 16.8526 15.1191C17.0421 15.2135 17.1368 15.2607 17.1842 15.3079C17.2316 15.4495 17.2316 15.7799 17.0895 16.1576Z" fill="white"/>
</svg>
